/* XPM */
static char * floor1_xpm[] = {
"32 32 387 2",
"  	c #3B7219",
". 	c #2F660D",
"+ 	c #346B12",
"@ 	c #2E630B",
"# 	c #356D11",
"$ 	c #356A12",
"% 	c #2A610B",
"& 	c #3E7618",
"* 	c #30690B",
"= 	c #30680A",
"- 	c #377210",
"; 	c #336E0D",
"> 	c #367314",
", 	c #326F0F",
"' 	c #356B11",
") 	c #3B721A",
"! 	c #346D10",
"~ 	c #346A12",
"{ 	c #36720F",
"] 	c #326E0D",
"^ 	c #2A610A",
"/ 	c #40781F",
"( 	c #3C731A",
"_ 	c #346C0E",
": 	c #437B1F",
"< 	c #316911",
"[ 	c #296009",
"} 	c #457D1F",
"| 	c #2E6608",
"1 	c #2F6709",
"2 	c #518D2B",
"3 	c #3E7917",
"4 	c #3E7918",
"5 	c #407C1D",
"6 	c #3B7118",
"7 	c #3B7018",
"8 	c #2A620A",
"9 	c #316910",
"0 	c #316811",
"a 	c #2D6607",
"b 	c #3D7917",
"c 	c #417D1D",
"d 	c #427C1D",
"e 	c #3A7117",
"f 	c #3A7017",
"g 	c #3D7519",
"h 	c #2A6207",
"i 	c #2A6208",
"j 	c #437A21",
"k 	c #437A20",
"l 	c #2E690A",
"m 	c #2F690A",
"n 	c #356B14",
"o 	c #366B15",
"p 	c #29600A",
"q 	c #29600B",
"r 	c #306A0B",
"s 	c #397415",
"t 	c #387415",
"u 	c #41801C",
"v 	c #40811B",
"w 	c #3D7D16",
"x 	c #3D7D17",
"y 	c #357211",
"z 	c #357212",
"A 	c #337312",
"B 	c #347312",
"C 	c #417C1D",
"D 	c #326D0E",
"E 	c #2A6206",
"F 	c #2E6A0A",
"G 	c #40811A",
"H 	c #376F13",
"I 	c #397118",
"J 	c #397117",
"K 	c #326F10",
"L 	c #327010",
"M 	c #337010",
"N 	c #3C711A",
"O 	c #3C711B",
"P 	c #386C16",
"Q 	c #376C16",
"R 	c #346F10",
"S 	c #347010",
"T 	c #2E6E07",
"U 	c #30700A",
"V 	c #30700C",
"W 	c #337311",
"X 	c #326F0D",
"Y 	c #387214",
"Z 	c #397214",
"` 	c #376F11",
" .	c #337011",
"..	c #396C16",
"+.	c #397416",
"@.	c #336F0F",
"#.	c #2F6E07",
"$.	c #31700A",
"%.	c #31700B",
"&.	c #347311",
"*.	c #326F0E",
"=.	c #376F12",
"-.	c #2C6407",
";.	c #2B6406",
">.	c #3B7315",
",.	c #336B12",
"'.	c #31690F",
").	c #31690E",
"!.	c #30690A",
"~.	c #447D1F",
"{.	c #447E1F",
"].	c #3A7715",
"^.	c #3A7714",
"/.	c #266301",
"(.	c #4C8D24",
"_.	c #4C8D25",
":.	c #31720A",
"<.	c #32710B",
"[.	c #3A7319",
"}.	c #3C741B",
"|.	c #3C751B",
"1.	c #2E670A",
"2.	c #2E670B",
"3.	c #3B7417",
"4.	c #3B7418",
"5.	c #3D751A",
"6.	c #31690D",
"7.	c #2B6305",
"8.	c #3B7316",
"9.	c #3B7716",
"0.	c #266401",
"a.	c #31720B",
"b.	c #3D741B",
"c.	c #2F670B",
"d.	c #3C7418",
"e.	c #3D741A",
"f.	c #3D7517",
"g.	c #296107",
"h.	c #296106",
"i.	c #3E7719",
"j.	c #3D7618",
"k.	c #2C6B08",
"l.	c #2B6B08",
"m.	c #387815",
"n.	c #387814",
"o.	c #45841D",
"p.	c #3E7F17",
"q.	c #3F7F18",
"r.	c #326A11",
"s.	c #3E751C",
"t.	c #3E761C",
"u.	c #2B6509",
"v.	c #326C10",
"w.	c #387016",
"x.	c #30680E",
"y.	c #3D7617",
"z.	c #3E7619",
"A.	c #2C6B09",
"B.	c #397815",
"C.	c #45831E",
"D.	c #3E7E18",
"E.	c #3E761B",
"F.	c #2B650A",
"G.	c #397017",
"H.	c #427F1D",
"I.	c #30670F",
"J.	c #306710",
"K.	c #386C15",
"L.	c #397218",
"M.	c #346B11",
"N.	c #255D03",
"O.	c #457C21",
"P.	c #3C7417",
"Q.	c #356D12",
"R.	c #356E13",
"S.	c #326E10",
"T.	c #326E0F",
"U.	c #407B1D",
"V.	c #417B1E",
"W.	c #2F6610",
"X.	c #306510",
"Y.	c #2F650F",
"Z.	c #2E640F",
"`.	c #3B7217",
" +	c #42801D",
".+	c #43801D",
"++	c #376C15",
"@+	c #3A7118",
"#+	c #265D04",
"$+	c #457B22",
"%+	c #467B22",
"&+	c #3C7318",
"*+	c #366D14",
"=+	c #356E14",
"-+	c #316511",
";+	c #2F6410",
">+	c #397614",
",+	c #367412",
"'+	c #377412",
")+	c #235B04",
"!+	c #235A04",
"~+	c #2F660F",
"{+	c #366D13",
"]+	c #366E14",
"^+	c #376D14",
"/+	c #386D14",
"(+	c #346D11",
"_+	c #316C0D",
":+	c #367212",
"<+	c #275C08",
"[+	c #285D09",
"}+	c #285F04",
"|+	c #286004",
"1+	c #367512",
"2+	c #366E15",
"3+	c #376D13",
"4+	c #346C10",
"5+	c #367213",
"6+	c #275E08",
"7+	c #306511",
"8+	c #276003",
"9+	c #448220",
"0+	c #2F6D0B",
"a+	c #306D0B",
"b+	c #326A10",
"c+	c #346F12",
"d+	c #346F11",
"e+	c #316C0C",
"f+	c #367011",
"g+	c #2B6507",
"h+	c #2F6510",
"i+	c #346A16",
"j+	c #306712",
"k+	c #2E680B",
"l+	c #2A6506",
"m+	c #2F6511",
"n+	c #2D680B",
"o+	c #276404",
"p+	c #407B1C",
"q+	c #407B1B",
"r+	c #3C731B",
"s+	c #3C731C",
"t+	c #3B771A",
"u+	c #3C7719",
"v+	c #3E791A",
"w+	c #3F7A1B",
"x+	c #417622",
"y+	c #427623",
"z+	c #326612",
"A+	c #316612",
"B+	c #346B14",
"C+	c #2C630E",
"D+	c #2C630F",
"E+	c #3C771A",
"F+	c #3D771A",
"G+	c #407A1C",
"H+	c #3B731B",
"I+	c #3B731C",
"J+	c #356F10",
"K+	c #3F7A1C",
"L+	c #326611",
"M+	c #346B13",
"N+	c #2D630F",
"O+	c #2C640A",
"P+	c #2D640B",
"Q+	c #447C22",
"R+	c #447D22",
"S+	c #44871B",
"T+	c #43871B",
"U+	c #256A01",
"V+	c #256A02",
"W+	c #3F7818",
"X+	c #3F7819",
"Y+	c #3E7819",
"Z+	c #30690D",
"`+	c #30680C",
" @	c #387014",
".@	c #356A13",
"+@	c #3A6F16",
"@@	c #286204",
"#@	c #286203",
"$@	c #387314",
"%@	c #387315",
"&@	c #457D23",
"*@	c #447D23",
"=@	c #43871A",
"-@	c #256B01",
";@	c #246A01",
">@	c #396F16",
",@	c #3A6F15",
"'@	c #2E650D",
")@	c #2D650D",
"!@	c #3F8315",
"~@	c #397D10",
"{@	c #377011",
"]@	c #397116",
"^@	c #377214",
"/@	c #387215",
"(@	c #387216",
"_@	c #40781D",
":@	c #408216",
"<@	c #397D0F",
"[@	c #30670E",
"}@	c #366D15",
"|@	c #3D751B",
"1@	c #2D630B",
"2@	c #2D640C",
"3@	c #407821",
"4@	c #336E11",
"5@	c #488326",
"6@	c #377012",
"7@	c #225E00",
"8@	c #235E00",
"9@	c #326412",
"0@	c #326413",
"a@	c #2D600C",
"b@	c #2D6509",
"c@	c #316B0F",
"d@	c #2E6310",
"e@	c #2E6211",
"f@	c #3C721D",
"g@	c #3C711C",
"h@	c #336D11",
"i@	c #488226",
"j@	c #488225",
"k@	c #336413",
"l@	c #2E5F0D",
"m@	c #306B0F",
"n@	c #2D680C",
"o@	c #3D711E",
"p@	c #2D640D",
"q@	c #3D741D",
"r@	c #3D741C",
"s@	c #286205",
"t@	c #326C0F",
"u@	c #3C7816",
"v@	c #366F11",
"w@	c #3C7718",
"x@	c #3E6F1F",
"y@	c #3B7317",
"z@	c #377114",
"A@	c #2E6510",
"B@	c #3C741C",
"C@	c #367010",
"D@	c #3C7818",
"E@	c #3E6F1E",
"F@	c #3D6F1F",
"G@	c #316413",
"H@	c #377115",
"I@	c #2E6410",
"J@	c #3B7818",
"K@	c #2C6909",
"L@	c #2C6908",
"M@	c #336F10",
"N@	c #386D17",
"O@	c #376E16",
"P@	c #427E1D",
"Q@	c #2A6105",
"R@	c #275E04",
"S@	c #376E14",
"T@	c #376F15",
"U@	c #3C7C17",
"V@	c #3C7C16",
"W@	c #377712",
"X@	c #396E18",
"Y@	c #396E17",
"Z@	c #417E1D",
"`@	c #417E1C",
" #	c #30680B",
".#	c #275E05",
"+#	c #386F16",
"@#	c #3E7A1B",
"##	c #347111",
"$#	c #427D1E",
"%#	c #316814",
"&#	c #2D640E",
"*#	c #2D6A08",
"=#	c #437C1F",
"-#	c #447C20",
";#	c #2E660A",
">#	c #32730D",
",#	c #33740E",
"'#	c #3E7E19",
")#	c #336B10",
"!#	c #3E761A",
"~#	c #2D640F",
"{#	c #336C10",
"    . . + + @ @ # # # # $ $ % % & & * = - - ; ; > > , , ' $ + + ",
"  ) . . + + @ @ ! # # # $ ~ % % & & = = { - ; ] > > , , ' $ + + ",
"^ ^ . . / / ( ( _ _ : : < < [ [ } } | 1 2 2 3 4 , , 5 5 6 7 . . ",
"% 8 . . / / ( ( _ _ : : 9 0 [ [ } } a | 2 2 3 b , , c d e f . . ",
"g g h h i i j k l m > > n o p q r r s t u v w x y z A B C C D D ",
"g g E E i i j k F m > > o o q q r r s t v G w x y z A A C C D D ",
": : H H . . I J K L M M N O P Q s s R S T T U V W A X X Y Z ` ` ",
": : H H . . I J  .M M S N O P ..+.+.@.R #.T $.%.&.B X *.Y Z =.` ",
"-.;.>.>.+ ,.'.).!.m ~.{.].^././.(._.:.<.[.  }.|.1.2.3.4.5.5.6.6.",
"7.;.>.8.+ + '.).= = } } 9.]./.0._._.:.a.    b.b.c.c.d.d.e.e.6.6.",
"` ` f.f.I I g.h.i.& & j.k.l.m.n.o.o.p.q.r.r.s.t.u.u.v.v.w.w.x.x.",
"` ` y.f.I I g.h.z.& & j.A.l.B.B.C.C.D.q.r.r.t.E.F.u.v.v.w.G.x.x.",
"M M H.H.I.J.Q K.L.J M.M.N.N.O.O.P.3.Q.R.S.T.U.V.W.X.Y.Z.d.d.`.`.",
"M M  +.+J.J.Q ++@+I + + #+#+$+%+&+d.*+=+, , 5 C X.-+;+;+d.d.`.`.",
">+>+,+'+)+!+~+~+{+*+@ @ ]+*+^+/+6.6.# (+_+_+z :+<+[+-+-+}+|+# # ",
">+>+,+1+)+!+~+~+{+*+@ @ 2+*+^+3+6.6.4+# _+_+5+5+6+[+-+7+8+|+# # ",
"9+9+0+a+r.r.r.b+c+d+_+e+f+f+g+g+<+<+;+h+b.5.I I i+i+j+j+k+k+g g ",
"9+9+0+a+r.r.r.b+c+c+_+_+f+f+l+l+<+<+;+m+b.b.I I i+i+j+j+n+n+g g ",
"o+o+p+q+r+s+*+]+t+u+s s R R v+w+x+y+z+A+. . w.w.B+B+C+D+E+F+4+4+",
"o+o+G+p+H+I+=+]+E+E+s s R J+w+K+y+y+z+L+. . w.w.M+B+N+N+E+E+4+4+",
"O+P+Q+R+S+T+U+V+W+X+Y+Y+Z+`+ @ @$ .@+@+@@@#@$@%@6.6.`+`+I I + + ",
"P+P+&@*@T+=@-@;@W+X+Y+Y+Z+`+ @ @$ $ >@,@#@#@$@$@6.6.`+`+I I + + ",
"g.g.'@)@!@!@~@~@=.{@f.f.]@]@# # x.x.*+*+^@$@/@(@_@_@b.b.O+P+x.x.",
"g.g.'@)@:@!@<@<@{@{@f.f.]@]@# # [@I.}@*+$@$@(@(@_@_@|@b.1@2@[@x.",
"'.'.3@3@4@4@5@5@] ; ; ; ` 6@7@8@9@0@a@a@b@b@`.`.c@c@n+n+d@e@f@g@",
"'.'.3@3@h@h@i@j@; ; ; ; ` =.8@8@k@0@l@l@b@b@`.`.m@c@n+n@e@e@o@o@",
"p@p@q@r@s@s@v.t@4 3 u@u@` v@w@w@x@x@0@0@# # d.d.y@`.z@z@Z.;+A@A@",
"p@p@q@B@s@s@v.t@4 3 u@u@C@` w@D@E@F@0@G@# # d.d.`.`.z@H@I@;+A@A@",
"J@J@K@L@> > M M@j+j+N@O@P@P@].].`+`+Q@E R@R@S@T@U@V@W@W@H H 6.6.",
"J@J@K@K@> > M M j+j+X@Y@Z@`@].]. #`+E h .#.#+#+#U@U@W@W@H H 6.6.",
"w+@#####$#$#z z %#%#N+&#*#*#].].=#-#b@;#T@T@j j >#,#'#'#)#4+!#!#",
"w+@#####$#$#z z %#%#N+~#*#*#].].-#-#;#;#T@T@j j ,#,#'#'#{#4+!#!#"};
