/* XPM */
static char * player1_xpm[] = {
"32 32 296 2",
"  	c #42317F",
". 	c #43327E",
"+ 	c #44327E",
"@ 	c #46337D",
"# 	c #6A476A",
"$ 	c #6E486A",
"% 	c #4A367E",
"& 	c #62436E",
"* 	c #77515A",
"= 	c #5A416F",
"- 	c #47347D",
"; 	c #79505C",
"> 	c #90655D",
", 	c #976F6F",
"' 	c #936D70",
") 	c #6B506F",
"! 	c #7D5762",
"~ 	c #8F645E",
"{ 	c #865850",
"] 	c #6D4869",
"^ 	c #513C76",
"/ 	c #744D62",
"( 	c #8F645F",
"_ 	c #986D6F",
": 	c #916268",
"< 	c #8B515C",
"[ 	c #814D5D",
"} 	c #46337E",
"| 	c #7E5866",
"1 	c #946A6C",
"2 	c #976F70",
"3 	c #8C5E54",
"4 	c #825752",
"5 	c #43327F",
"6 	c #534483",
"7 	c #634B73",
"8 	c #865B53",
"9 	c #966E70",
"0 	c #89515B",
"a 	c #8A4E5A",
"b 	c #884D5C",
"c 	c #47337E",
"d 	c #794C5F",
"e 	c #986C70",
"f 	c #875A4E",
"g 	c #815951",
"h 	c #523C76",
"i 	c #4C3D80",
"j 	c #604F78",
"k 	c #5F4F76",
"l 	c #695B7B",
"m 	c #DED4C9",
"n 	c #BBACA1",
"o 	c #9A7675",
"p 	c #8A505B",
"q 	c #976D6F",
"r 	c #986D71",
"s 	c #85574F",
"t 	c #674964",
"u 	c #47347C",
"v 	c #46347E",
"w 	c #534582",
"x 	c #B4A9A4",
"y 	c #E1D9CF",
"z 	c #E2D9CF",
"A 	c #E5DDD2",
"B 	c #E3DBD0",
"C 	c #E0D6CC",
"D 	c #95656B",
"E 	c #8F5A63",
"F 	c #8A4F5A",
"G 	c #88594C",
"H 	c #85574A",
"I 	c #745449",
"J 	c #7D635A",
"K 	c #DED6CC",
"L 	c #DFD6CB",
"M 	c #DBD1C7",
"N 	c #926469",
"O 	c #8B505B",
"P 	c #61426E",
"Q 	c #7C4962",
"R 	c #8A515B",
"S 	c #916166",
"T 	c #956D6D",
"U 	c #7F5849",
"V 	c #795B4C",
"W 	c #CCC2B7",
"X 	c #CCC3B8",
"Y 	c #B2A89D",
"Z 	c #B4AAA0",
"` 	c #E2DACF",
" .	c #E1D9CE",
"..	c #6C5E4F",
"+.	c #675748",
"@.	c #AD9F95",
"#.	c #BEABA5",
"$.	c #8B5763",
"%.	c #6C446D",
"&.	c #8A4E59",
"*.	c #966E6E",
"=.	c #775648",
"-.	c #7C6053",
";.	c #DFD6CC",
">.	c #756A5F",
",.	c #675240",
"'.	c #695543",
").	c #9C948B",
"!.	c #B0A8A0",
"~.	c #53463E",
"{.	c #B0A69E",
"].	c #C5B6B1",
"^.	c #504081",
"/.	c #6A466A",
"(.	c #88505A",
"_.	c #85645A",
":.	c #755546",
"<.	c #694F44",
"[.	c #D9D0C6",
"}.	c #AFA79F",
"|.	c #B1A79D",
"1.	c #B2ABA2",
"2.	c #B1AAA1",
"3.	c #B5A8A4",
"4.	c #4C3C81",
"5.	c #62426D",
"6.	c #885058",
"7.	c #884F58",
"8.	c #7E5350",
"9.	c #745446",
"0.	c #5C3F33",
"a.	c #48352E",
"b.	c #CFBFBC",
"c.	c #D8CCC6",
"d.	c #D7CDC7",
"e.	c #E5DCD2",
"f.	c #E8DFD4",
"g.	c #D5C3BB",
"h.	c #C5A7A2",
"i.	c #C7A9A4",
"j.	c #DBCEC4",
"k.	c #DBCFC6",
"l.	c #DCCFC6",
"m.	c #DCCEC6",
"n.	c #DACBC5",
"o.	c #716284",
"p.	c #805057",
"q.	c #864D57",
"r.	c #7D524F",
"s.	c #735344",
"t.	c #381F17",
"u.	c #746253",
"v.	c #B9A79C",
"w.	c #BEAAA4",
"x.	c #BFABA5",
"y.	c #CBBDB2",
"z.	c #CCBEB2",
"A.	c #CBBEB2",
"B.	c #CDBFB3",
"C.	c #B8A195",
"D.	c #A16765",
"E.	c #97585D",
"F.	c #C1ADA2",
"G.	c #BEAB9F",
"H.	c #AE968F",
"I.	c #AF9B91",
"J.	c #B09E91",
"K.	c #7A6879",
"L.	c #714963",
"M.	c #734645",
"N.	c #705142",
"O.	c #745445",
"P.	c #5B3E32",
"Q.	c #3C251C",
"R.	c #9F8B75",
"S.	c #AB977F",
"T.	c #AB9780",
"U.	c #9F8572",
"V.	c #947565",
"W.	c #9E8572",
"X.	c #A7947F",
"Y.	c #A79380",
"Z.	c #A38275",
"`.	c #824E4E",
" +	c #937266",
".+	c #937364",
"++	c #7F564C",
"@+	c #816A55",
"#+	c #816B56",
"$+	c #68546D",
"%+	c #44317C",
"&+	c #351B1F",
"*+	c #3B2017",
"=+	c #583C33",
"-+	c #331910",
";+	c #3C271D",
">+	c #A6927A",
",+	c #99846E",
"'+	c #957B68",
")+	c #816251",
"!+	c #806955",
"~+	c #7A594C",
"{+	c #7B5B4D",
"]+	c #765045",
"^+	c #75413E",
"/+	c #733E3B",
"(+	c #795749",
"_+	c #67546D",
":+	c #43317D",
"<+	c #422A38",
"[+	c #31160D",
"}+	c #382015",
"|+	c #816A56",
"1+	c #806A55",
"2+	c #67536C",
"3+	c #483467",
"4+	c #311716",
"5+	c #371F15",
"6+	c #7F6954",
"7+	c #806A57",
"8+	c #584675",
"9+	c #41307D",
"0+	c #331A23",
"a+	c #7E685A",
"b+	c #46357E",
"c+	c #473371",
"d+	c #321919",
"e+	c #341B13",
"f+	c #624D41",
"g+	c #6F5966",
"h+	c #43317C",
"i+	c #372022",
"j+	c #3D251C",
"k+	c #7E6756",
"l+	c #806957",
"m+	c #614969",
"n+	c #68516C",
"o+	c #7F6856",
"p+	c #6D5863",
"q+	c #4E3978",
"r+	c #897792",
"s+	c #A18B87",
"t+	c #826C58",
"u+	c #65536B",
"v+	c #4B3C80",
"w+	c #C6B7AF",
"x+	c #87725F",
"y+	c #6C585D",
"z+	c #877A95",
"A+	c #C7BEAD",
"B+	c #846F5A",
"C+	c #6D5846",
"D+	c #55406B",
"E+	c #4B3C81",
"F+	c #C7BCB4",
"G+	c #B6AC9A",
"H+	c #755F4B",
"I+	c #644F3C",
"J+	c #544165",
"K+	c #695B85",
"L+	c #DAD2C0",
"M+	c #AB9F8C",
"N+	c #68533F",
"O+	c #634E3B",
"P+	c #A79DA4",
"Q+	c #DBD3C0",
"R+	c #887460",
"S+	c #5C475C",
"T+	c #4A3B81",
"U+	c #ABA3A7",
"V+	c #DAD1BF",
"W+	c #86725E",
"X+	c #65503D",
"Y+	c #624D40",
"Z+	c #44337D",
"`+	c #A69BA4",
" @	c #DCD3C2",
".@	c #B8AD9C",
"+@	c #816B57",
"@@	c #624D3F",
"#@	c #ACA2A1",
"$@	c #DED6C3",
"%@	c #B4AA98",
"&@	c #6A5540",
"*@	c #4D3D80",
"=@	c #B3A8A0",
"-@	c #897661",
";@	c #654F3C",
">@	c #AA9FA9",
",@	c #DDD4C2",
"'@	c #87725D",
")@	c #7E6955",
"!@	c #4F4083",
"~@	c #D4C8C1",
"{@	c #B9AE9C",
"]@	c #66513E",
"      . + .                               @ # $ % .             ",
"      & * =                             - ; > , ' ) .           ",
"    + ! ~ { ] ^                       + / ( _ : < [ }           ",
"    + | 1 2 3 4 ^                 5 6 7 8 9 0 a a b c           ",
"    + d < e , f g h +       i j k l m n o 2 p a a b c           ",
"    + d a < q 2 r s t u v w x y y z A B C D E F a b c           ",
"    + d a a < q 2 G H I J K B A A A A A A L M N O b c           ",
"    5 P Q a a R S T U V W X Y Z ` A A A  ...+.@.#.$.c           ",
"        %.&.a a O *.=.-.;.>.,.'.).B A A B !.~.{.` ].^.          ",
"        /.a a a (._.:.<.[.}.|.|.1.B A A A ` 2.B A B 3.4.        ",
"        5.6.a 7.8.9.0.a.b.c.d.e.f.A A g.h.i.j.k.l.m.n.o.        ",
"        @ p.q.r.:.s.t.u.v.w.x.y.z.A.B.C.D.E.F.G.H.I.J.K.        ",
"        . L.M.N.O.P.Q.R.S.T.U.V.W.X.X.Y.Z.`. +.+++@+#+$+        ",
"          %+&+*+=+-+;+>+,+'+)+!+~+{+{+]+^+/+(+!+#+#+#+_+        ",
"          :+<+[+[+[+}+#+#+|+#+#+|+#+#+@+1+1+#+#+#+#+#+2+        ",
"          . 3+4+[+[+5+6+#+#+#+#+#+#+#+#+#+#+#+#+#+#+7+8+        ",
"            9+0+[+[+5+6+#+#+#+#+#+#+#+#+#+#+#+#+#+#+a+b+        ",
"              c+d+e+f+1+#+#+#+#+#+#+#+#+#+#+#+#+#+#+g+.         ",
"              h+i+j+k+#+#+#+#+#+#+#+#+#+#+#+#+#+#+l+m+.         ",
"            5 n+o+l+#+#+#+#+#+#+#+#+#+#+#+#+#+#+#+p+q+          ",
"          . r+s+t+#+#+#+#+#+#+#+#+#+#+#+#+#+#+#+#+u+            ",
"          v+w+x+#+#+#+#+#+#+#+#+#+#+#+#+#+#+#+#+#+y++           ",
"          z+A+B+#+#+#+#+#+#+#+#+#+#+#+#+#+#+#+#+1+C+D+          ",
"        E+F+G+#+#+#+#+#+#+#+#+#+#+#+#+#+#+#+#+#+H+I+J+          ",
"        K+L+M+#+#+#+#+#+#+#+#+#+#+#+#+#+#+#+#+1+N+O+J+          ",
"        P+Q+R+#+#+#+#+#+#+#+#+#+#+#+#+#+#+#+#+1+N+O+S+.         ",
"      T+U+V+W+#+#+#+#+#+#+#+#+#+#+#+#+#+#+#+#+1+X+O+Y+Z+        ",
"      `+ @.@+@#+#+#+#+#+#+#+#+#+#+#+#+#+#+#+#+6+I+O+@@Z+        ",
"    . #@$@%@#+#+#+#+#+#+#+#+#+#+#+#+#+#+#+#+1+&@O+O+@@Z+        ",
"    *@=@Q+-@#+#+#+#+#+#+#+#+#+#+#+#+#+#+#+#+1+;@O+O+@@Z+        ",
"  5 >@,@V+'@#+#+#+#+#+#+#+#+#+#+#+#+#+#+#+#+)@I+O+O+@@Z+        ",
"  !@~@$@{@#+#+#+#+#+#+#+#+#+#+#+#+#+#+#+#+1+]@O+O+O+@@Z+        "};
