/* XPM */
static char * player1_xpm[] = {
"32 32 504 2",
"  	c #3B7219",
". 	c #2F660D",
"+ 	c #346B12",
"@ 	c #2E630B",
"# 	c #356D11",
"$ 	c #356A12",
"% 	c #2A610B",
"& 	c #3E7618",
"* 	c #30690B",
"= 	c #30680A",
"- 	c #377210",
"; 	c #336E0D",
"> 	c #367314",
", 	c #326F0F",
"' 	c #356B11",
") 	c #3B721A",
"! 	c #346D10",
"~ 	c #346A12",
"{ 	c #36720F",
"] 	c #326E0D",
"^ 	c #2A610A",
"/ 	c #40781F",
"( 	c #3C731A",
"_ 	c #346C0E",
": 	c #437B1F",
"< 	c #316911",
"[ 	c #296009",
"} 	c #457D1F",
"| 	c #2E6608",
"1 	c #2F6709",
"2 	c #518D2B",
"3 	c #3E7917",
"4 	c #3E7918",
"5 	c #407C1D",
"6 	c #3B7118",
"7 	c #3B7018",
"8 	c #2A620A",
"9 	c #316910",
"0 	c #316811",
"a 	c #2D6607",
"b 	c #3D7917",
"c 	c #417D1D",
"d 	c #427C1D",
"e 	c #3A7117",
"f 	c #3A7017",
"g 	c #3D7519",
"h 	c #2A6207",
"i 	c #2A6208",
"j 	c #437A21",
"k 	c #437A20",
"l 	c #2E690A",
"m 	c #2F690A",
"n 	c #356B14",
"o 	c #366B15",
"p 	c #29600A",
"q 	c #29600B",
"r 	c #306A0B",
"s 	c #397415",
"t 	c #387415",
"u 	c #41801C",
"v 	c #40811B",
"w 	c #3D7D16",
"x 	c #3D7D17",
"y 	c #357211",
"z 	c #357212",
"A 	c #337312",
"B 	c #347312",
"C 	c #417C1D",
"D 	c #326D0E",
"E 	c #2A6206",
"F 	c #2E6A0A",
"G 	c #DCE0D8",
"H 	c #BDBCB9",
"I 	c #D0D0CE",
"J 	c #CECECD",
"K 	c #40811A",
"L 	c #376F13",
"M 	c #397118",
"N 	c #397117",
"O 	c #326F10",
"P 	c #327010",
"Q 	c #337010",
"R 	c #868787",
"S 	c #BAA388",
"T 	c #D6D6D6",
"U 	c #386C16",
"V 	c #376C16",
"W 	c #81705F",
"X 	c #938069",
"Y 	c #2E6E07",
"Z 	c #30700A",
"` 	c #30700C",
" .	c #337311",
"..	c #326F0D",
"+.	c #387214",
"@.	c #397214",
"#.	c #376F11",
"$.	c #337011",
"%.	c #D6D6D5",
"&.	c #B49E86",
"*.	c #E9D1B2",
"=.	c #8D847C",
"-.	c #396C16",
";.	c #397416",
">.	c #B2B1B1",
",.	c #DCC5A9",
"'.	c #DCC6AA",
").	c #AAABA8",
"!.	c #31700A",
"~.	c #31700B",
"{.	c #347311",
"].	c #326F0E",
"^.	c #376F12",
"/.	c #2C6407",
"(.	c #2B6406",
"_.	c #3B7315",
":.	c #336B12",
"<.	c #31690F",
"[.	c #31690E",
"}.	c #30690A",
"|.	c #B8B4AE",
"1.	c #D8C0A3",
"2.	c #F9E1C4",
"3.	c #B09E84",
"4.	c #9A856F",
"5.	c #9A856E",
"6.	c #98856D",
"7.	c #F6DEC1",
"8.	c #F4DEC1",
"9.	c #A1998E",
"0.	c #D9DED9",
"a.	c #3C741B",
"b.	c #3C751B",
"c.	c #2E670A",
"d.	c #2E670B",
"e.	c #3B7417",
"f.	c #3B7418",
"g.	c #3D751A",
"h.	c #31690D",
"i.	c #2B6305",
"j.	c #3B7316",
"k.	c #E5E5E5",
"l.	c #A59A8A",
"m.	c #FDE8D4",
"n.	c #FFE9D4",
"o.	c #FBE6CF",
"p.	c #FBE2C8",
"q.	c #FAE3C7",
"r.	c #F9E3C9",
"s.	c #FDEAD4",
"t.	c #FFEAD3",
"u.	c #C2AA8C",
"v.	c #CBCBCB",
"w.	c #3D741B",
"x.	c #2F670B",
"y.	c #3C7418",
"z.	c #3D741A",
"A.	c #3D7517",
"B.	c #296107",
"C.	c #296106",
"D.	c #3E7719",
"E.	c #868581",
"F.	c #F6E0C4",
"G.	c #FEE9D4",
"H.	c #FFEAD5",
"I.	c #E2D0B8",
"J.	c #B9B5AF",
"K.	c #3E751C",
"L.	c #3E761C",
"M.	c #2B6509",
"N.	c #326C10",
"O.	c #387016",
"P.	c #30680E",
"Q.	c #3D7617",
"R.	c #3E7619",
"S.	c #898885",
"T.	c #FEEAD7",
"U.	c #F0DBC2",
"V.	c #8A8079",
"W.	c #898177",
"X.	c #F3DFC9",
"Y.	c #F7E1C8",
"Z.	c #B5A693",
"`.	c #888078",
" +	c #CEBCA4",
".+	c #F8E0C3",
"++	c #9E886A",
"@+	c #3E761B",
"#+	c #2B650A",
"$+	c #397017",
"%+	c #427F1D",
"&+	c #30670F",
"*+	c #306710",
"=+	c #386C15",
"-+	c #CCCCCC",
";+	c #D7BEA1",
">+	c #FDEBD3",
",+	c #B8AB97",
"'+	c #A1A0A1",
")+	c #AAA8A7",
"!+	c #C3B6A2",
"~+	c #FFE9D5",
"{+	c #DDCAB4",
"]+	c #B8B3AF",
"^+	c #6F6E6E",
"/+	c #A8A094",
"(+	c #F6E0C6",
"_+	c #9C896A",
":+	c #407B1D",
"<+	c #417B1E",
"[+	c #2F6610",
"}+	c #306510",
"|+	c #2F650F",
"1+	c #E6E8E5",
"2+	c #3B7217",
"3+	c #42801D",
"4+	c #43801D",
"5+	c #376C15",
"6+	c #D8BB9D",
"7+	c #F7E3C9",
"8+	c #C1A68A",
"9+	c #BFA88D",
"0+	c #F8E5CA",
"a+	c #F2DCC3",
"b+	c #FCE6CE",
"c+	c #D6C0A3",
"d+	c #C2A586",
"e+	c #E3CFB3",
"f+	c #FCE6D0",
"g+	c #A39789",
"h+	c #7E9C74",
"i+	c #316511",
"j+	c #8B8B8B",
"k+	c #C3C3C3",
"l+	c #397614",
"m+	c #969697",
"n+	c #D2D2D0",
"o+	c #235B04",
"p+	c #235A04",
"q+	c #2F660F",
"r+	c #BBB6B1",
"s+	c #EDDBC6",
"t+	c #FFEAD2",
"u+	c #B1A28E",
"v+	c #CDC1B5",
"w+	c #A39289",
"x+	c #CEC2B5",
"y+	c #A59888",
"z+	c #FDEBD6",
"A+	c #FFEBD5",
"B+	c #F2D9BC",
"C+	c #94928F",
"D+	c #367212",
"E+	c #275C08",
"F+	c #8A8A89",
"G+	c #ACACAC",
"H+	c #E3E3E3",
"I+	c #919191",
"J+	c #286004",
"K+	c #C8C8C8",
"L+	c #A3A3A3",
"M+	c #E4E4E4",
"N+	c #9D886F",
"O+	c #FAE3CB",
"P+	c #F6E2C9",
"Q+	c #C3B6A3",
"R+	c #A48D7E",
"S+	c #BFAF98",
"T+	c #E6D1BD",
"U+	c #FEEAD5",
"V+	c #F1D7B7",
"W+	c #94918F",
"X+	c #367213",
"Y+	c #E6E7E5",
"Z+	c #9B9B9B",
"`+	c #A9B3A6",
" @	c #6E6E6E",
".@	c #C4C4C4",
"+@	c #DADADA",
"@@	c #448220",
"#@	c #789272",
"$@	c #D0D0D0",
"%@	c #989898",
"&@	c #D1D1D1",
"*@	c #326A11",
"=@	c #9D896F",
"-@	c #F9E4CB",
";@	c #FDEBD7",
">@	c #FEE9D3",
",@	c #FEE9D6",
"'@	c #949392",
")@	c #346A16",
"!@	c #A8A8A8",
"~@	c #010101",
"{@	c #C6C6C6",
"]@	c #707070",
"^@	c #7C9773",
"/@	c #2F6D0B",
"(@	c #BBC3B9",
"_@	c #9E9E9C",
":@	c #BEBDBA",
"<@	c #D6BEA0",
"[@	c #FCE8D1",
"}@	c #FFE9D2",
"|@	c #F3DDC1",
"1@	c #DFE1E1",
"2@	c #7A9173",
"3@	c #6F6F6F",
"4@	c #AFAFAF",
"5@	c #808080",
"6@	c #757575",
"7@	c #E4E6E6",
"8@	c #276404",
"9@	c #407B1C",
"0@	c #407B1B",
"a@	c #CBD0C9",
"b@	c #B4B4B2",
"c@	c #060606",
"d@	c #645C4D",
"e@	c #F2D5B5",
"f@	c #FFEAD7",
"g@	c #EDCEAC",
"h@	c #FBE5CD",
"i@	c #C8AB8B",
"j@	c #ABABAB",
"k@	c #4B4A4B",
"l@	c #D2D2D2",
"m@	c #2C630E",
"n@	c #2C630F",
"o@	c #3C771A",
"p@	c #3D771A",
"q@	c #346C10",
"r@	c #407A1C",
"s@	c #3B731B",
"t@	c #3B731C",
"u@	c #6D655E",
"v@	c #F9E2C8",
"w@	c #F5DCBE",
"x@	c #E8C8A0",
"y@	c #F6DDBF",
"z@	c #C9AB8B",
"A@	c #000000",
"B@	c #346B14",
"C@	c #2D630F",
"D@	c #2C640A",
"E@	c #2D640B",
"F@	c #447C22",
"G@	c #447D22",
"H@	c #44871B",
"I@	c #43871B",
"J@	c #256A01",
"K@	c #9E9995",
"L@	c #F4E0C4",
"M@	c #D0B694",
"N@	c #FBE3CD",
"O@	c #B39F88",
"P@	c #B3A290",
"Q@	c #A68E72",
"R@	c #C0C0BF",
"S@	c #30680C",
"T@	c #457D23",
"U@	c #447D23",
"V@	c #43871A",
"W@	c #256B01",
"X@	c #8B8A88",
"Y@	c #A09485",
"Z@	c #B6B3B0",
"`@	c #C3AD93",
" #	c #FAE5CC",
".#	c #F4DEC2",
"+#	c #8F8F8E",
"@#	c #E1E1E1",
"##	c #CBD2CA",
"$#	c #2E650D",
"%#	c #2D650D",
"&#	c #3F8315",
"*#	c #397D10",
"=#	c #DADDD8",
"-#	c #9D856B",
";#	c #F8E1C7",
">#	c #FCE5CC",
",#	c #CCB395",
"'#	c #CEB391",
")#	c #F0D7B6",
"!#	c #E2C9AE",
"~#	c #ABACAB",
"{#	c #387314",
"]#	c #387215",
"^#	c #387216",
"/#	c #40781D",
"(#	c #408216",
"_#	c #397D0F",
":#	c #377011",
"<#	c #B3ADA6",
"[#	c #DBC4A8",
"}#	c #F1D1B0",
"|#	c #797878",
"1#	c #BFBFBF",
"2#	c #C0AC91",
"3#	c #FAE3CA",
"4#	c #978878",
"5#	c #3D751B",
"6#	c #2D630B",
"7#	c #2D640C",
"8#	c #30670E",
"9#	c #407821",
"0#	c #336E11",
"a#	c #488326",
"b#	c #D7D7D6",
"c#	c #B8A28A",
"d#	c #F2D1B0",
"e#	c #A0A1A0",
"f#	c #235E00",
"g#	c #98866C",
"h#	c #EED7BC",
"i#	c #9E9285",
"j#	c #2D6509",
"k#	c #316B0F",
"l#	c #2D680B",
"m#	c #2E6310",
"n#	c #2E6211",
"o#	c #3C721D",
"p#	c #3C711C",
"q#	c #336D11",
"r#	c #488226",
"s#	c #488225",
"t#	c #868786",
"u#	c #F1D8BB",
"v#	c #B19E84",
"w#	c #D8D8D8",
"x#	c #B4AFA8",
"y#	c #D6BD9E",
"z#	c #C7A886",
"A#	c #CECFCE",
"B#	c #306B0F",
"C#	c #2D680C",
"D#	c #3D711E",
"E#	c #2D640D",
"F#	c #3D741D",
"G#	c #3D741C",
"H#	c #286205",
"I#	c #326C0F",
"J#	c #3C7816",
"K#	c #A4A5A3",
"L#	c #94908B",
"M#	c #7E7C7A",
"N#	c #3C7718",
"O#	c #D4D6D3",
"P#	c #868480",
"Q#	c #ACAAA6",
"R#	c #326413",
"S#	c #3B7317",
"T#	c #377114",
"U#	c #2E640F",
"V#	c #2F6410",
"W#	c #2E6510",
"X#	c #3C741C",
"Y#	c #367010",
"Z#	c #3C7818",
"`#	c #3E6F1E",
" $	c #3D6F1F",
".$	c #316413",
"+$	c #377115",
"@$	c #2E6410",
"#$	c #3B7818",
"$$	c #2C6909",
"%$	c #2C6908",
"&$	c #336F10",
"*$	c #306712",
"=$	c #386D17",
"-$	c #376E16",
";$	c #427E1D",
">$	c #3A7715",
",$	c #2A6105",
"'$	c #275E04",
")$	c #376E14",
"!$	c #376F15",
"~$	c #3C7C17",
"{$	c #3C7C16",
"]$	c #377712",
"^$	c #396E18",
"/$	c #396E17",
"($	c #417E1D",
"_$	c #417E1C",
":$	c #30680B",
"<$	c #275E05",
"[$	c #386F16",
"}$	c #3F7A1B",
"|$	c #3E7A1B",
"1$	c #347111",
"2$	c #427D1E",
"3$	c #316814",
"4$	c #2D640E",
"5$	c #2D6A08",
"6$	c #437C1F",
"7$	c #447C20",
"8$	c #2E660A",
"9$	c #32730D",
"0$	c #33740E",
"a$	c #3E7E19",
"b$	c #336B10",
"c$	c #3E761A",
"d$	c #2D640F",
"e$	c #336C10",
"    . . + + @ @ # # # # $ $ % % & & * = - - ; ; > > , , ' $ + + ",
"  ) . . + + @ @ ! # # # $ ~ % % & & = = { - ; ] > > , , ' $ + + ",
"^ ^ . . / / ( ( _ _ : : < < [ [ } } | 1 2 2 3 4 , , 5 5 6 7 . . ",
"% 8 . . / / ( ( _ _ : : 9 0 [ [ } } a | 2 2 3 b , , c d e f . . ",
"g g h h i i j k l m > > n o p q r r s t u v w x y z A B C C D D ",
"g g E E i i j k F m > G H o q q r r I J v K w x y z A A C C D D ",
": : L L . . M N O P Q R S T U V s s W X Y Y Z `  .A ....+.@.#.#.",
": : L L . . M N $.Q %.&.*.=.U -.;.>.,.'.).Y !.~.{.B ..].+.@.^.#.",
"/.(._._.+ :.<.[.}.m |.1.2.3.4.5.4.6.7.8.9.0.a.b.c.d.e.f.g.g.h.h.",
"i.(._.j.+ + <.[.= k.l.m.n.o.p.q.p.r.s.t.u.v.w.w.x.x.y.y.z.z.h.h.",
"#.#.A.A.M M B.C.D.E.F.G.n.n.n.n.n.n.n.H.I.J.K.L.M.M.N.N.O.O.P.P.",
"#.#.Q.A.M M B.C.R.S.T.U.V.W.X.n.Y.Z.`. +.+++L.@+#+M.N.N.O.$+P.P.",
"Q Q %+%+&+*+V =+-+;+>+,+'+)+!+~+{+]+^+/+(+_+:+<+[+}+|+1+y.y.2+2+",
"Q Q 3+4+*+*+V 5+-+6+n.7+8+9+0+a+b+c+d+e+f+g+h+C }+i+j+k+y.y.2+2+",
"l+l+m+n+o+p+q+q+r+s+n.n.t+u+v+w+x+y+z+A+H.B+C+D+E+F+G+H+I+J+# # ",
"l+l+K+L+M+p+q+k.N+O+n.n.n.P+Q+R+S+T+U+H.n.V+W+X+Y+Z+`+ @.@+@# # ",
"@@@@#@$@%@&@*@k.=@-@n.n.n.n.n.;@>@H.n.n.n.,@'@M )@!@~@k+{@]@^@g ",
"@@@@/@(@K+_@&@:@<@[@n.n.n.n.n.n.n.n.n.}@|@G.Z.1@2@3@4@5@6@7@g g ",
"8@8@9@0@a@b@c@d@e@f@n.n.n.n.n.n.n.n.n.}@g@h@i@j@k@l@m@n@o@p@q@q@",
"8@8@r@9@s@t@%@u@v@w@n.n.n.n.n.n.n.n.n.}@x@y@z@A@-+B@C@C@o@o@q@q@",
"D@E@F@G@H@I@J@K@L@M@N@n.n.n.n.n.n.n.n.G.O@P@Q@R@h.h.S@S@M M + + ",
"E@E@T@U@I@V@W@X@Y@Z@`@ #n.n.n.n.n.n.n..#+#@#v.##h.h.S@S@M M + + ",
"B.B.$#%#&#&#*#*#^.=#-#;#n.>#,#'#)#n.n.!#~#{#]#^#/#/#w.w.D@E@P.P.",
"B.B.$#%#(#&#_#_#:#:#<#[#n.}#|#1#2#3#>#4#{#{#^#^#/#/#5#w.6#7#8#P.",
"<.<.9#9#0#0#a#a#] ; b#c#U+d#e#f#g#7.h#i#j#j#2+2+k#k#l#l#m#n#o#p#",
"<.<.9#9#q#q#r#s#; ; ; t#u#v#w#f#x#y#z#A#j#j#2+2+B#k#l#C#n#n#D#D#",
"E#E#F#G#H#H#N.I#4 3 J#K#L#M#N#N#O#P#Q#R## # y.y.S#2+T#T#U#V#W#W#",
"E#E#F#X#H#H#N.I#4 3 J#J#Y##.N#Z#`# $R#.$# # y.y.2+2+T#+$@$V#W#W#",
"#$#$$$%$> > Q &$*$*$=$-$;$;$>$>$S@S@,$E '$'$)$!$~${$]$]$L L h.h.",
"#$#$$$$$> > Q Q *$*$^$/$($_$>$>$:$S@E h <$<$[$[$~$~$]$]$L L h.h.",
"}$|$1$1$2$2$z z 3$3$C@4$5$5$>$>$6$7$j#8$!$!$j j 9$0$a$a$b$q@c$c$",
"}$|$1$1$2$2$z z 3$3$C@d$5$5$>$>$7$7$8$8$!$!$j j 0$0$a$a$e$q@c$c$"};
