/* XPM */
static char * cat_xpm[] = {
"64 64 383 2",
"  	c #66914aff",
". 	c #86584B",
"+ 	c #885949",
"@ 	c #89584A",
"# 	c #8D5641",
"$ 	c #674B62",
"% 	c #674C5F",
"& 	c #684A66",
"* 	c #6D4867",
"= 	c #875749",
"- 	c #855A47",
"; 	c #987071",
"> 	c #95726E",
", 	c #86574D",
"' 	c #87584E",
") 	c #684B5D",
"! 	c #875844",
"~ 	c #8C584A",
"{ 	c #99706C",
"] 	c #9C6F69",
"^ 	c #976E72",
"/ 	c #8C6E78",
"( 	c #6A4A62",
"_ 	c #885748",
": 	c #88584A",
"< 	c #745155",
"[ 	c #88564D",
"} 	c #855644",
"| 	c #977071",
"1 	c #957171",
"2 	c #8A4E5A",
"3 	c #684C5A",
"4 	c #976F6F",
"5 	c #88584C",
"6 	c #664F59",
"7 	c #895756",
"8 	c #835347",
"9 	c #987070",
"0 	c #9B6E73",
"a 	c #8C525E",
"b 	c #8D515D",
"c 	c #894D59",
"d 	c #8B4F5B",
"e 	c #977075",
"f 	c #977170",
"g 	c #865849",
"h 	c #805858",
"i 	c #805A4F",
"j 	c #986F73",
"k 	c #834E56",
"l 	c #885A5D",
"m 	c #8A595D",
"n 	c #976F70",
"o 	c #966963",
"p 	c #895A50",
"q 	c #865A51",
"r 	c #644D5F",
"s 	c #684C62",
"t 	c #76535A",
"u 	c #845948",
"v 	c #8B5F56",
"w 	c #997172",
"x 	c #864D56",
"y 	c #884F58",
"z 	c #8B4D5A",
"A 	c #8A505C",
"B 	c #865743",
"C 	c #805D49",
"D 	c #835852",
"E 	c #E6DACA",
"F 	c #E6DACC",
"G 	c #845D4C",
"H 	c #99716F",
"I 	c #9B6E71",
"J 	c #937472",
"K 	c #9C6D73",
"L 	c #986B70",
"M 	c #855A51",
"N 	c #84584B",
"O 	c #855A49",
"P 	c #654C5F",
"Q 	c #674B64",
"R 	c #614D59",
"S 	c #614C5B",
"T 	c #E5DDD2",
"U 	c #775C51",
"V 	c #957173",
"W 	c #9A7072",
"X 	c #9B6E75",
"Y 	c #684764",
"Z 	c #644C62",
"` 	c #674C5B",
" .	c #E6DDCE",
"..	c #996F71",
"+.	c #9B6D77",
"@.	c #694865",
"#.	c #884E5A",
"$.	c #946D6E",
"%.	c #875A47",
"&.	c #755644",
"*.	c #755546",
"=.	c #E4DCD1",
"-.	c #E4DED2",
";.	c #E3D9CF",
">.	c #855058",
",.	c #8B574C",
"'.	c #835444",
").	c #745445",
"!.	c #745749",
"~.	c #855257",
"{.	c #684A64",
"].	c #85574A",
"^.	c #885449",
"/.	c #88505B",
"(.	c #977073",
"_.	c #946C6C",
":.	c #705649",
"<.	c #57452F",
"[.	c #56462F",
"}.	c #E8DCCE",
"|.	c #E8DBD2",
"1.	c #997577",
"2.	c #8A4D5C",
"3.	c #8B4D58",
"4.	c #765542",
"5.	c #765448",
"6.	c #E6DCD0",
"7.	c #59432E",
"8.	c #57402E",
"9.	c #57412C",
"0.	c #E5DBD1",
"a.	c #54422C",
"b.	c #58432E",
"c.	c #584330",
"d.	c #564130",
"e.	c #56412E",
"f.	c #874F5A",
"g.	c #E5DCD3",
"h.	c #B0A494",
"i.	c #563F2D",
"j.	c #8F7866",
"k.	c #AFA395",
"l.	c #59402C",
"m.	c #55402B",
"n.	c #523D2C",
"o.	c #4C352D",
"p.	c #4C3629",
"q.	c #E6E0D4",
"r.	c #A38587",
"s.	c #A58789",
"t.	c #8A4E58",
"u.	c #2F2621",
"v.	c #56412C",
"w.	c #5A4530",
"x.	c #302523",
"y.	c #30261D",
"z.	c #E4DDD5",
"A.	c #E5E0DA",
"B.	c #312620",
"C.	c #30251F",
"D.	c #E8DED5",
"E.	c #E6DED3",
"F.	c #85564C",
"G.	c #86515B",
"H.	c #94736A",
"I.	c #96716B",
"J.	c #352D22",
"K.	c #53412D",
"L.	c #E0D8CD",
"M.	c #332B20",
"N.	c #6C525D",
"O.	c #715645",
"P.	c #4E2E23",
"Q.	c #33150B",
"R.	c #C9BCB6",
"S.	c #E6DCD3",
"T.	c #EDE3DA",
"U.	c #E9E3D5",
"V.	c #E6DDCC",
"W.	c #E9DBCE",
"X.	c #885059",
"Y.	c #4C3024",
"Z.	c #2C180D",
"`.	c #C9BAB5",
" +	c #E8DBD3",
".+	c #E6DCD2",
"++	c #EEE4DA",
"@+	c #E8E0D3",
"#+	c #694A5C",
"$+	c #855650",
"%+	c #825154",
"&+	c #715941",
"*+	c #32110A",
"=+	c #35170D",
"-+	c #31160D",
";+	c #CBB9B9",
">+	c #CBBCB9",
",+	c #C5BBBA",
"'+	c #C5BBB9",
")+	c #894449",
"!+	c #994851",
"~+	c #9F4551",
"{+	c #95454E",
"]+	c #D1C0B8",
"^+	c #D3BFB8",
"/+	c #D3C2BA",
"(+	c #D1BEB8",
"_+	c #D3BEB9",
":+	c #D2BFBB",
"<+	c #D2BEBD",
"[+	c #AD9B85",
"}+	c #865648",
"|+	c #884F55",
"1+	c #7F5151",
"2+	c #2F140B",
"3+	c #31160F",
"4+	c #30150C",
"5+	c #2D1209",
"6+	c #CAB8B6",
"7+	c #CCB8B9",
"8+	c #E3DBD0",
"9+	c #E2DACF",
"0+	c #924B51",
"a+	c #9E4853",
"b+	c #9A4952",
"c+	c #9A474F",
"d+	c #994350",
"e+	c #D2BFB9",
"f+	c #D0BDB7",
"g+	c #D1BCB7",
"h+	c #CFBEB4",
"i+	c #AF9B83",
"j+	c #654C62",
"k+	c #8D534F",
"l+	c #78474B",
"m+	c #77554B",
"n+	c #7E6759",
"o+	c #AB977F",
"p+	c #B09A8D",
"q+	c #B6A093",
"r+	c #B39D8F",
"s+	c #AE9B8A",
"t+	c #B19C8B",
"u+	c #AA867A",
"v+	c #A56F6D",
"w+	c #945B61",
"x+	c #8B5D60",
"y+	c #B39E8D",
"z+	c #B49F8E",
"A+	c #AB9683",
"B+	c #A8987F",
"C+	c #7A524A",
"D+	c #7B534B",
"E+	c #785B49",
"F+	c #88765E",
"G+	c #8A765E",
"H+	c #816B56",
"I+	c #654C61",
"J+	c #8D5548",
"K+	c #754845",
"L+	c #755445",
"M+	c #AB9681",
"N+	c #A2766D",
"O+	c #8F575A",
"P+	c #865956",
"Q+	c #A9977F",
"R+	c #73363D",
"S+	c #7B3738",
"T+	c #806B56",
"U+	c #816B54",
"V+	c #846956",
"W+	c #855153",
"X+	c #81564D",
"Y+	c #3C170E",
"Z+	c #6F5240",
"`+	c #705041",
" @	c #31130B",
".@	c #311511",
"+@	c #31160B",
"@@	c #AA947F",
"#@	c #753536",
"$@	c #763637",
"%@	c #723739",
"&@	c #A69581",
"*@	c #A3726D",
"=@	c #733739",
"-@	c #79383C",
";@	c #876154",
">@	c #40221A",
",@	c #73554A",
"'@	c #AC967F",
")@	c #743434",
"!@	c #856856",
"~@	c #703839",
"{@	c #6F3939",
"]@	c #723837",
"^@	c #6C3A39",
"/@	c #A9957D",
"(@	c #AC9880",
"_@	c #816A58",
":@	c #703837",
"<@	c #806A55",
"[@	c #673C33",
"}@	c #713B39",
"|@	c #816C57",
"1@	c #806655",
"2@	c #2D1418",
"3@	c #7F6952",
"4@	c #31170A",
"5@	c #81695D",
"6@	c #5C4146",
"7@	c #2F140D",
"8@	c #826B5B",
"9@	c #2F170D",
"0@	c #321710",
"a@	c #301712",
"b@	c #7F685A",
"c@	c #816A5A",
"d@	c #826C55",
"e@	c #7F6858",
"f@	c #694E61",
"g@	c #6D545A",
"h@	c #806959",
"i@	c #836A56",
"j@	c #846A5B",
"k@	c #81695F",
"l@	c #644854",
"m@	c #684B61",
"n@	c #70555E",
"o@	c #7D6951",
"p@	c #C7B1B4",
"q@	c #BCA2A1",
"r@	c #E3CDCF",
"s@	c #85705F",
"t@	c #7B6550",
"u@	c #E5CFD1",
"v@	c #806B58",
"w@	c #DFD7C2",
"x@	c #E1D5BF",
"y@	c #7F6B53",
"z@	c #644F3C",
"A@	c #DED6C3",
"B@	c #816C59",
"C@	c #634E3B",
"D@	c #664A60",
"E@	c #E0CEC2",
"F@	c #7B6C57",
"G@	c #7F6954",
"H@	c #67523F",
"I@	c #634E3D",
"J@	c #E1D3C6",
"K@	c #7B6C59",
"L@	c #E1D8CF",
"M@	c #DCD3C4",
"N@	c #69533E",
"O@	c #66513E",
"P@	c #DED5C4",
"Q@	c #6B5540",
"R@	c #8F7A83",
"S@	c #DDD7C1",
"T@	c #BBAC97",
"U@	c #7D6B57",
"V@	c #DFD4C2",
"W@	c #DDD6C3",
"X@	c #644F3A",
"Y@	c #664A63",
"Z@	c #634E39",
"`@	c #E0D0C3",
" #	c #DDD1C3",
".#	c #7E6B5A",
"+#	c #6D5742",
"@#	c #DCD7C3",
"##	c #7E6C58",
"$#	c #644E39",
"%#	c #705866",
"&#	c #826C57",
"*#	c #705865",
"=#	c #E2D6CA",
"-#	c #7F6A57",
";#	c #D6C3C5",
">#	c #836E59",
",#	c #D4C4C5",
"'#	c #624D3A",
"                                                                                                                                ",
"                                                                                        . + @ #                                 ",
"              $ $ $ %                                                               & * = - ; ; ; > %                           ",
"              , ' ' )                                                               ! ~ { ] ; ; ; ^ / %                         ",
"            ( _ _ _ : :                                                           < [ } ; ; | 1 2 2 2 3                         ",
"            ( 4 4 4 . = 5 5 6                                                   7 8 ; 9 ; 0 a b 2 2 c d                         ",
"            ( ; ; ; e f = = g h                                                 i = j ; k 2 2 2 2 2 2 2                         ",
"            ( l m n ; ; o p = q r                                           s t u v 1 w x 2 2 2 2 2 2 2                         ",
"            ( y z A j ; ; w B = C D                                     E E F G H 9 I J 2 2 2 2 2 2 2 2                         ",
"            ( y z 2 K L ; ; M g N O P                       Q R S S S S T T T U V ; | W 2 2 2 2 2 2 2 2                         ",
"            ( y z 2 2 2 ; ; ; ; ; X u = Y Z             `  .T T T T T T T T T T T T 2 2 2 2 2 2 2 2 2 2                         ",
"            ( y z 2 2 2 ....; ; ; +.5 = @.Z             `  .T T T T T T T T T T T T 2 2 2 2 2 2 2 2 2 2                         ",
"            ( y z 2 2 2 z #.$.; ; ; %.= = = &.*.*.*.=.-.T T T T T T T T T T T T T T T T T ;.>.2 2 2 2 2                         ",
"            ( y z 2 2 2 2 2 I ; ; ; ,.'.= g &.*.).!.T T T T T T T T T T T T T T T T T T T T ~.d 2 2 2 2                         ",
"            {.].^.2 2 2 2 2 /.y (.; ; _.+ g &.*.:.T T T T T T T T T T T T T T T T T <.<.[.[.}.|.1.2 2 2                         ",
"                  2.2 2 2 2 2 2 2 3.; ; 4.5.*.*.6.T  .7.8.8.8.9.T T T T T T T T T 0.a.b.c.d.d.e.T -.f.f.                        ",
"                  2.2 2 2 2 2 2 2 3.; ; 4.5.*.*.g.T h.9.i.j.j.9.k.T T T T T T T T 0.l.m.n.o.o.p.T q.r.s.                        ",
"                  , t.2 2 2 2 2 2 2 ; ; ).*.*.*.g.T u.u.v.w.m.9.x.y.T T T T T T T T z.A.B.C.D.E.T T T T                         ",
"                  F.2.2 2 2 2 2 2 G.H.I.*.*.*.*.g.T J.C.K.K.K.K.C.C.T T T =.T T T T T L.M.M.T T T T T T N.%                     ",
"                  F.2.2 2 2 2 2 2 >.O.*.*.*.P.Q.R.T T S.S.S.S.S.T.U.T T T T T T T T T T T T T T T T T T V.W.                    ",
"                  F.2.2 2 2 2 2 /.X.*.*.*.*.Y.Z.`. +S..+T T T T ++@+T T T T .+|.|.|.|.|.-.T T T T T .+.+T  +                    ",
"                  #+$+t.2 2 2 %+&+*.*.*.*+=+-+Z.;+;+>+,+'+'+T T T T T T E.=.W.)+!+!+~+{+]+^+]+]+]+/+(+_+:+<+[+                  ",
"                    }+|+2 2 2 1+*.*.*.).2+3+4+5+6+6+;+;+7+;+8+8+8+8+8+9+9+9+9+0+a+b+c+d+e+e+f+f+f+e+(+g+f+h+i+                  ",
"                    j+k+2.l+m+*.*.*.*.).-+-+n+o+o+o+p+p+p+p+p+p+p+p+p+p+q+r+s+t+u+v+w+x+y+z+A+B+C+D+E+F+G+G+H+                  ",
"                    I+J+t.K+L+*.*.*.*.).-+-+n+o+o+o+o+o+o+o+o+o+o+o+o+o+o+M+A+A+A+N+O+P+A+A+M+Q+R+S+T+U+H+H+V+                  ",
"                      W+X+Y+Z+`+*.*. @.@-++@o+o+o+o+o+o+@@#@$@$@%@@@&@&@&@&@&@&@&@*@=@%@%@-@$@$@;@H+H+H+H+H+H+                  ",
"                        -+-+-+>@5.,@-+-+-++@o+o+o+o+'@'@)@!@H+H+~@{@{@{@{@{@{@]@%@%@%@%@^@%@H+H+H+H+H+H+H+H+H+                  ",
"                        -+-+-+-+-+-+-+-+-++@/@(@H+H+_@:@H+H+H+H+H+H+H+H+H+H+<@[@}@}@}@}@|@H+H+H+H+H+H+H+H+H+H+                  ",
"                        -+-+-+-+-+-+-+-+-++@H+H+H+H+H+H+H+H+H+H+H+1@H+H+H+H+H+H+H+H+H+H+H+H+H+H+H+H+H+H+H+H+H+                  ",
"                        % 2@-+-+-+-+-+-+-++@H+H+H+H+H+H+H+H+H+H+H+H+H+H+H+H+H+H+H+H+H+H+H+H+H+H+H+H+H+H+H+H+3@                  ",
"                        % 2@-+-+-+-+-+-+-++@H+H+H+H+H+H+H+H+H+H+H+H+H+H+H+H+H+H+H+H+H+H+H+H+H+H+H+H+H+H+H+H+3@                  ",
"                            4@-+-+-+-+-+-++@H+H+H+H+H+H+H+H+H+H+H+H+H+H+H+H+H+H+H+H+H+H+H+H+H+H+H+H+H+H+H+U+                    ",
"                            4@-+-+-+-+-+-++@H+H+H+H+H+H+H+H+H+H+H+H+H+H+H+H+H+H+H+H+H+H+H+H+H+H+H+H+H+H+H+U+                    ",
"                            4@4@-+-+-+-+-++@H+H+H+H+H+H+H+H+H+H+H+H+H+H+H+H+H+H+H+H+H+H+H+H+H+H+H+H+H+H+U+5@                    ",
"                              6@-+-+7@-+-++@H+H+H+H+H+H+H+H+H+H+H+H+H+H+H+H+H+H+H+H+H+H+H+H+H+H+H+H+H+H+8@                      ",
"                                9@0@a@-+b@c@H+H+H+H+H+H+H+H+H+H+H+H+H+H+H+H+H+H+H+H+H+H+H+H+H+H+H+H+H+H+d@$                     ",
"                                9@-++@-+e@_@H+H+H+H+H+H+H+H+H+H+H+H+H+H+H+H+H+H+H+H+H+H+H+H+H+H+H+H+H+H+f@%                     ",
"                                9@-+-+-+e@_@H+H+H+H+H+H+H+H+H+H+H+H+H+H+H+H+H+H+H+H+H+H+H+H+H+H+H+H+H+H+%                       ",
"                              g@h@i@j@j@_@U+H+H+H+H+H+H+H+H+H+H+H+H+H+H+H+H+H+H+H+H+H+H+H+H+H+H+H+H+k@l@m@                      ",
"                            I+n@H+H+H+H+H+H+H+H+H+H+H+H+H+H+H+H+H+H+H+H+H+H+H+H+H+H+H+H+H+H+H+H+H+H+o@                          ",
"                            p@q@H+H+H+H+H+H+H+H+H+H+H+H+H+H+H+H+H+H+H+H+H+H+H+H+H+H+H+H+H+H+H+H+H+H+o@                          ",
"                        % r@s@t@H+H+H+H+H+H+H+H+H+H+H+H+H+H+H+H+H+H+H+H+H+H+H+H+H+H+H+H+H+H+H+H+H+H+o@                          ",
"                        % u@v@H+H+H+H+H+H+H+H+H+H+H+H+H+H+H+H+H+H+H+H+H+H+H+H+H+H+H+H+H+H+H+H+H+H+H+o@                          ",
"                        w@x@v@H+H+H+H+H+H+H+H+H+H+H+H+H+H+H+H+H+H+H+H+H+H+H+H+H+H+H+H+H+H+H+H+H+H+H+y@z@                        ",
"                        A@A@H+H+H+H+H+H+H+H+H+H+H+H+H+H+H+H+H+H+H+H+H+H+H+H+H+H+H+H+H+H+H+H+H+H+H+H+B@C@D@                      ",
"                      E@A@F@H+H+H+H+H+H+H+H+H+H+H+H+H+H+H+H+H+H+H+H+H+H+H+H+H+H+H+H+H+H+H+H+H+H+H+G@H@C@I@                      ",
"                    % J@A@K@H+H+H+H+H+H+H+H+H+H+H+H+H+H+H+H+H+H+H+H+H+H+H+H+H+H+H+H+H+H+H+H+H+H+H+H+C@C@I@                      ",
"                    L@M@A@K@H+H+H+H+H+H+H+H+H+H+H+H+H+H+H+H+H+H+H+H+H+H+H+H+H+H+H+H+H+H+H+H+H+H+N@O@C@C@I@                      ",
"                    P@A@A@K@H+H+H+H+H+H+H+H+H+H+H+H+H+H+H+H+H+H+H+H+H+H+H+H+H+H+H+H+H+H+H+H+H+H+Q@C@C@C@I@                      ",
"                  R@S@A@T@U@H+H+H+H+H+H+H+H+H+H+H+H+H+H+H+H+H+H+H+H+H+H+H+H+H+H+H+H+H+H+H+H+H+H+Q@C@C@C@I@                      ",
"                  V@W@A@H+H+H+H+H+H+H+H+H+H+H+H+H+H+H+H+H+H+H+H+H+H+H+H+H+H+H+H+H+H+H+H+H+H+H+H+Q@C@C@C@I@                      ",
"                  V@W@A@H+H+H+H+H+H+H+H+H+H+H+H+H+H+H+H+H+H+H+H+H+H+H+H+H+H+H+H+H+H+H+H+H+H+H+H+Q@C@C@C@X@Y@                    ",
"                  A@A@A@H+H+H+H+H+H+H+H+H+H+H+H+H+H+H+H+H+H+H+H+H+H+H+H+H+H+H+H+H+H+H+H+H+H+H+H+z@C@C@C@C@Z@                    ",
"                  A@A@A@H+H+H+H+H+H+H+H+H+H+H+H+H+H+H+H+H+H+H+H+H+H+H+H+H+H+H+H+H+H+H+H+H+H+H+H+C@C@C@C@C@Z@                    ",
"              `@ #A@A@.#H+H+H+H+H+H+H+H+H+H+H+H+H+H+H+H+H+H+H+H+H+H+H+H+H+H+H+H+H+H+H+H+H+H+H+H+C@C@C@C@C@Z@                    ",
"              A@A@A@A@.#H+H+H+H+H+H+H+H+H+H+H+H+H+H+H+H+H+H+H+H+H+H+H+H+H+H+H+H+H+H+H+H+H+H+H+H+C@C@C@C@C@Z@                    ",
"              A@A@A@A@.#H+H+H+H+H+H+H+H+H+H+H+H+H+H+H+H+H+H+H+H+H+H+H+H+H+H+H+H+H+H+H+H+H+H++#+#C@C@C@C@C@Z@                    ",
"            $ A@A@A@@###H+H+H+H+H+H+H+H+H+H+H+H+H+H+H+H+H+H+H+H+H+H+H+H+H+H+H+H+H+H+H+H+H+H+$#C@C@C@C@C@C@Z@                    ",
"            %#A@A@A@&#H+H+H+H+H+H+H+H+H+H+H+H+H+H+H+H+H+H+H+H+H+H+H+H+H+H+H+H+H+H+H+H+H+H+H+$#C@C@C@C@C@C@Z@                    ",
"            *#A@A@A@d@H+H+H+H+H+H+H+H+H+H+H+H+H+H+H+H+H+H+H+H+H+H+H+H+H+H+H+H+H+H+H+H+H+H+H+$#C@C@C@C@C@C@Z@                    ",
"          =#A@A@A@A@d@H+H+H+H+H+H+H+H+H+H+H+H+H+H+H+H+H+H+H+H+H+H+H+H+H+H+H+H+H+H+H+H+H+H+-#C@C@C@C@C@C@C@Z@                    ",
"          =#A@A@A@A@d@H+H+H+H+H+H+H+H+H+H+H+H+H+H+H+H+H+H+H+H+H+H+H+H+H+H+H+H+H+H+H+H+H+H+-#C@C@C@C@C@C@C@Z@                    ",
"        ;#A@A@A@A@>#H+H+H+H+H+H+H+H+H+H+H+H+H+H+H+H+H+H+H+H+H+H+H+H+H+H+H+H+H+H+H+H+H+H+z@C@C@C@C@C@C@C@C@Z@                    ",
"        ,#A@A@A@A@>#H+H+H+H+H+H+H+H+H+H+H+H+H+H+H+H+H+H+H+H+H+H+H+H+H+H+H+H+H+H+H+H+H+H+'#C@C@C@C@C@C@C@C@Z@                    "};
