/* XPM */
static char * wall1_xpm[] = {
"32 32 659 2",
"  	c #70C5F0",
". 	c #1899DE",
"+ 	c #0387D1",
"@ 	c #3398D9",
"# 	c #68BDEB",
"$ 	c #0388D1",
"% 	c #189DE1",
"& 	c #199DE2",
"* 	c #41A2DE",
"= 	c #69C1ED",
"- 	c #40B0EB",
"; 	c #1291D7",
"> 	c #1792D4",
", 	c #0277BD",
"' 	c #027CC3",
") 	c #459ED8",
"! 	c #70C3EC",
"~ 	c #61B4E3",
"{ 	c #5EB2E3",
"] 	c #208ACE",
"^ 	c #0689D2",
"/ 	c #6FC5F1",
"( 	c #4AB3EB",
"_ 	c #6FC5F0",
": 	c #1E8FD5",
"< 	c #55AEE4",
"[ 	c #6EC3F0",
"} 	c #67BAEA",
"| 	c #62B5E2",
"1 	c #65BFEE",
"2 	c #3F9EDB",
"3 	c #0480C7",
"4 	c #379EDA",
"5 	c #70C9F4",
"6 	c #3BAEEB",
"7 	c #1D9EDF",
"8 	c #0D8DD4",
"9 	c #0384CD",
"0 	c #0C89CE",
"a 	c #32A9E9",
"b 	c #5EBDF1",
"c 	c #44A6E2",
"d 	c #0888D1",
"e 	c #0282CA",
"f 	c #53AEE3",
"g 	c #429FDC",
"h 	c #5AAFE1",
"i 	c #178CCE",
"j 	c #0E87CD",
"k 	c #38ADEB",
"l 	c #60B9E8",
"m 	c #4FABE1",
"n 	c #5CB2E4",
"o 	c #229DDF",
"p 	c #1993D5",
"q 	c #4297CF",
"r 	c #3F95CF",
"s 	c #2383C3",
"t 	c #72C5F0",
"u 	c #5DADDC",
"v 	c #51A6D9",
"w 	c #50B5EC",
"x 	c #4DAAE3",
"y 	c #52ADE2",
"z 	c #3D9EDC",
"A 	c #5BB4E7",
"B 	c #1D8FD6",
"C 	c #1CA2E5",
"D 	c #3EA0DC",
"E 	c #50ABE3",
"F 	c #55ABDC",
"G 	c #4299D2",
"H 	c #1E82C5",
"I 	c #1997D8",
"J 	c #037BC2",
"K 	c #59ACDE",
"L 	c #5ABEF2",
"M 	c #068AD3",
"N 	c #0386D0",
"O 	c #0C86CB",
"P 	c #1088CA",
"Q 	c #50A4D7",
"R 	c #73C6EE",
"S 	c #4699D1",
"T 	c #2D88C7",
"U 	c #40AAE7",
"V 	c #3C9BDB",
"W 	c #2590D5",
"X 	c #49A7E0",
"Y 	c #50ADE3",
"Z 	c #47B3EA",
"` 	c #1EA1E3",
" .	c #1698DD",
"..	c #74C8F3",
"+.	c #3E93CD",
"@.	c #047ABF",
"#.	c #1896D7",
"$.	c #2487C9",
"%.	c #69C1EF",
"&.	c #25A0E3",
"*.	c #0889D1",
"=.	c #2688C9",
"-.	c #66BCEA",
";.	c #067BC0",
">.	c #0278BE",
",.	c #1C9EE0",
"'.	c #1DA3E7",
").	c #169ADF",
"!.	c #63BCEC",
"~.	c #057CC1",
"{.	c #027AC1",
"].	c #0284CE",
"^.	c #42A1DA",
"/.	c #1C9DDE",
"(.	c #087FC4",
"_.	c #027EC4",
":.	c #75C8F1",
"<.	c #41A7E2",
"[.	c #1798DD",
"}.	c #0278BF",
"|.	c #138DCF",
"1.	c #1897D9",
"2.	c #1795D7",
"3.	c #67BFED",
"4.	c #39A6E0",
"5.	c #0379BF",
"6.	c #1898DA",
"7.	c #0287D1",
"8.	c #169BE0",
"9.	c #1493D5",
"0.	c #63BBEA",
"a.	c #1794D6",
"b.	c #067DC2",
"c.	c #0281CA",
"d.	c #3E9FDB",
"e.	c #6AC1EF",
"f.	c #2A99DA",
"g.	c #027DC4",
"h.	c #74C8F1",
"i.	c #3FA8E3",
"j.	c #179BE0",
"k.	c #1696D9",
"l.	c #1D9EDE",
"m.	c #1389CC",
"n.	c #3F93CD",
"o.	c #42A8DF",
"p.	c #1A99D9",
"q.	c #1690D2",
"r.	c #0D84C8",
"s.	c #0D8FD7",
"t.	c #62BAE9",
"u.	c #0578BE",
"v.	c #077CC1",
"w.	c #1C9BDB",
"x.	c #027EC6",
"y.	c #0E8AD0",
"z.	c #66BEED",
"A.	c #5EB6EA",
"B.	c #0C89D1",
"C.	c #1187CB",
"D.	c #63C2F2",
"E.	c #199FE3",
"F.	c #199DE0",
"G.	c #0D88CC",
"H.	c #0377BD",
"I.	c #027BC2",
"J.	c #0387D0",
"K.	c #61B3E1",
"L.	c #3E93CC",
"M.	c #087DC2",
"N.	c #1C9ADB",
"O.	c #6ABEEB",
"P.	c #5EB1E1",
"Q.	c #63B5E3",
"R.	c #64C1EF",
"S.	c #63B5E4",
"T.	c #44A0DC",
"U.	c #4EA7E0",
"V.	c #6ABFEC",
"W.	c #1799DE",
"X.	c #1289CC",
"Y.	c #55A6D6",
"Z.	c #56A5D6",
"`.	c #43AFE8",
" +	c #68B9E8",
".+	c #027EC5",
"++	c #0385CE",
"@+	c #017FC6",
"#+	c #0285CE",
"$+	c #4EA6DE",
"%+	c #0286CF",
"&+	c #0381C7",
"*+	c #1996D8",
"=+	c #0277BE",
"-+	c #3795D3",
";+	c #56ACE1",
">+	c #53AAE0",
",+	c #0379C0",
"'+	c #1896D8",
")+	c #62B5E4",
"!+	c #098CD5",
"~+	c #54B0E7",
"{+	c #5ABAED",
"]+	c #5DC3F6",
"^+	c #0D7BBF",
"/+	c #229CDC",
"(+	c #5BB1E3",
"_+	c #73C5EF",
":+	c #4B9ED4",
"<+	c #3597D7",
"[+	c #56B0E5",
"}+	c #58B1E6",
"|+	c #2C95D6",
"1+	c #4EABE2",
"2+	c #45ADE7",
"3+	c #58AEE0",
"4+	c #4CA7E0",
"5+	c #0D8AD1",
"6+	c #57AFE4",
"7+	c #338AC7",
"8+	c #0678BD",
"9+	c #57B6E9",
"0+	c #4FADE3",
"a+	c #0383CC",
"b+	c #0E91D8",
"c+	c #5FB6E6",
"d+	c #4397CF",
"e+	c #1694D5",
"f+	c #2D8BCA",
"g+	c #58B1E3",
"h+	c #64BBEA",
"i+	c #55AFE3",
"j+	c #4BA3DA",
"k+	c #2886C6",
"l+	c #027BC3",
"m+	c #0283CB",
"n+	c #53ACE1",
"o+	c #72C9F2",
"p+	c #44A3DE",
"q+	c #2FA8E9",
"r+	c #027BC1",
"s+	c #3C90CB",
"t+	c #75C8F0",
"u+	c #53A7DA",
"v+	c #348ECA",
"w+	c #1F9FDF",
"x+	c #1DA4E7",
"y+	c #4AA5DD",
"z+	c #3395D5",
"A+	c #037DC5",
"B+	c #037EC6",
"C+	c #1591D5",
"D+	c #1292D8",
"E+	c #3699D9",
"F+	c #4DA8E0",
"G+	c #0284CC",
"H+	c #027AC0",
"I+	c #137FC3",
"J+	c #69BAE8",
"K+	c #0280C8",
"L+	c #0D8ED4",
"M+	c #3D98D3",
"N+	c #59AADB",
"O+	c #0B81C6",
"P+	c #1A97D8",
"Q+	c #0281C9",
"R+	c #1AA0E4",
"S+	c #3098DB",
"T+	c #54ACE4",
"U+	c #0386CF",
"V+	c #1296DC",
"W+	c #1EA5E9",
"X+	c #56ACDF",
"Y+	c #2784C4",
"Z+	c #62B4E3",
"`+	c #1995D7",
" @	c #1699DE",
".@	c #1699DF",
"+@	c #1CA3E7",
"@@	c #1397DC",
"#@	c #27A4E6",
"$@	c #4CA5DB",
"%@	c #3890CC",
"&@	c #179ADE",
"*@	c #0280C6",
"=@	c #179CE1",
"-@	c #51ADE3",
";@	c #2690D4",
">@	c #1E8ED5",
",@	c #37ABE8",
"'@	c #38AEEB",
")@	c #22A2E4",
"!@	c #1CA1E3",
"~@	c #1180C2",
"{@	c #55A7D8",
"]@	c #157CC0",
"^@	c #318CCA",
"/@	c #3D95CF",
"(@	c #57ABDE",
"_@	c #0D83C7",
":@	c #1792D5",
"<@	c #118BCF",
"[@	c #1397DD",
"}@	c #27A4E5",
"|@	c #4EB5EC",
"1@	c #42A2DC",
"2@	c #0F93D9",
"3@	c #5EBEF0",
"4@	c #1E8ED4",
"5@	c #6DC4F0",
"6@	c #5CBCEF",
"7@	c #53A8DD",
"8@	c #5AB5E8",
"9@	c #3DA5E1",
"0@	c #50B5EB",
"a@	c #378DC9",
"b@	c #62B3E2",
"c@	c #5FB8E9",
"d@	c #5CB8EB",
"e@	c #51A5D9",
"f@	c #078BD4",
"g@	c #1BA0E4",
"h@	c #5DB9EA",
"i@	c #0989D1",
"j@	c #0789D2",
"k@	c #0B8AD1",
"l@	c #3199DA",
"m@	c #76CFF9",
"n@	c #53A9DD",
"o@	c #077CC2",
"p@	c #71C6F0",
"q@	c #49AEE6",
"r@	c #1691D3",
"s@	c #42A0DC",
"t@	c #6DC3F1",
"u@	c #4FA2D7",
"v@	c #57A8DA",
"w@	c #1E9EDE",
"x@	c #0489D3",
"y@	c #4FB9F0",
"z@	c #5BB3E6",
"A@	c #65B9E9",
"B@	c #5EB5E7",
"C@	c #5BBDF0",
"D@	c #3297D9",
"E@	c #429AD6",
"F@	c #5DAEDF",
"G@	c #4A9ED5",
"H@	c #0F84C9",
"I@	c #0285CD",
"J@	c #4CA8E1",
"K@	c #6ABBE5",
"L@	c #0180C6",
"M@	c #6FC1EB",
"N@	c #349EDA",
"O@	c #0C82C6",
"P@	c #0979BE",
"Q@	c #54A6D7",
"R@	c #0286D0",
"S@	c #5CBEEF",
"T@	c #0288D2",
"U@	c #179BE1",
"V@	c #0F92D9",
"W@	c #52AEE3",
"X@	c #3295D6",
"Y@	c #4095CE",
"Z@	c #1797D8",
"`@	c #4EA9E1",
" #	c #6EC4EF",
".#	c #53B4EA",
"+#	c #21A4E5",
"@#	c #1089CC",
"##	c #0C7BBF",
"$#	c #6FC4ED",
"%#	c #54AEE4",
"&#	c #56AFE4",
"*#	c #61B7E7",
"=#	c #61B4E2",
"-#	c #58B0E3",
";#	c #4AB3EA",
">#	c #0381C9",
",#	c #1093DA",
"'#	c #3B9BDA",
")#	c #4FA5DC",
"!#	c #3A92CE",
"~#	c #1590D2",
"{#	c #0279BF",
"]#	c #6BC4F0",
"^#	c #098AD2",
"/#	c #0284CD",
"(#	c #1089CD",
"_#	c #108ACD",
":#	c #3C95D1",
"<#	c #50A7DB",
"[#	c #50A5DA",
"}#	c #2B95D8",
"|#	c #2895D9",
"1#	c #1492D6",
"2#	c #1898D8",
"3#	c #61BEEF",
"4#	c #1B9DDD",
"5#	c #1892D4",
"6#	c #037BC1",
"7#	c #0282CB",
"8#	c #1EA4E7",
"9#	c #4EAAE4",
"0#	c #0380C8",
"a#	c #4DA0D5",
"b#	c #7BCFF5",
"c#	c #3CA4DF",
"d#	c #057ABF",
"e#	c #0280C9",
"f#	c #61B5E6",
"g#	c #62BAEB",
"h#	c #379ADA",
"i#	c #1B9EE0",
"j#	c #057BC0",
"k#	c #2F93D3",
"l#	c #4FA8E1",
"m#	c #2C93D6",
"n#	c #1DA1E4",
"o#	c #53A8DB",
"p#	c #2783C3",
"q#	c #1087CA",
"r#	c #1692D4",
"s#	c #1394D9",
"t#	c #4FAAE4",
"u#	c #027DC5",
"v#	c #43A7DF",
"w#	c #4FA3D8",
"x#	c #378ECB",
"y#	c #0382CB",
"z#	c #0B84CA",
"A#	c #68BFEC",
"B#	c #48ACE5",
"C#	c #1394D7",
"D#	c #2D9BDC",
"E#	c #75CDF7",
"F#	c #128FD2",
"G#	c #0478BD",
"H#	c #5CB1E0",
"I#	c #339CD9",
"J#	c #2790D0",
"K#	c #42A6E1",
"L#	c #53AFE5",
"M#	c #2390D5",
"N#	c #0488D2",
"O#	c #52A9DF",
"P#	c #1895D7",
"Q#	c #1897D8",
"R#	c #5BB4E5",
"S#	c #1997D9",
"T#	c #199ADD",
"U#	c #1294DA",
"V#	c #2691D6",
"W#	c #61B5E4",
"X#	c #35A2E2",
"Y#	c #68C1F0",
"Z#	c #59BBF1",
"`#	c #57BBF1",
" $	c #208FD5",
".$	c #088BD4",
"+$	c #0985CC",
"@$	c #0F86C9",
"#$	c #1693D5",
"$$	c #60B5E4",
"%$	c #51A2D7",
"&$	c #57B7EB",
"*$	c #6EC1EC",
"=$	c #5DB3E6",
"-$	c #2C9FE0",
";$	c #199FE2",
">$	c #4EB0E7",
",$	c #3691CE",
"'$	c #50A3D7",
")$	c #58AADC",
"!$	c #1B8ECE",
"~$	c #76CAF3",
"{$	c #42A7E0",
"]$	c #1D9FE1",
"^$	c #1296DB",
"/$	c #0D8BD1",
"($	c #1EA0E2",
"_$	c #53AEE4",
":$	c #1BA1E4",
"<$	c #1B9DE0",
"[$	c #097FC4",
"}$	c #1A95D7",
"|$	c #117CC0",
"1$	c #73C7F0",
"2$	c #1B97D9",
"3$	c #62B9E7",
"4$	c #67BFEE",
"5$	c #5FB8EB",
"6$	c #60B9EB",
"7$	c #5BAEE1",
"8$	c #1B98D9",
"9$	c #4DA6DC",
"0$	c #55ADE1",
"a$	c #71C6EF",
"b$	c #0D85C9",
"c$	c #118FD4",
"d$	c #66C0EF",
"e$	c #189BDE",
"f$	c #1D9FDF",
"g$	c #2584C6",
"h$	c #5BACDC",
"i$	c #378EC8",
"j$	c #0276BD",
"k$	c #52B1E6",
"l$	c #3C9BD8",
"m$	c #59C3F8",
"n$	c #62BBEA",
"o$	c #0276BE",
"p$	c #1E9EDF",
"q$	c #0381CA",
"r$	c #64BAEA",
"s$	c #5CB6E7",
"t$	c #57ADE0",
"u$	c #59B5E8",
"v$	c #58ACDD",
"w$	c #78CBF3",
"x$	c #67B9E5",
"y$	c #0378BE",
"z$	c #51B2E8",
"A$	c #2291D7",
"B$	c #75C9F2",
"C$	c #388DC8",
"D$	c #0283CC",
"E$	c #419CD7",
"F$	c #4196D0",
"G$	c #60B2E2",
"H$	c #44A4DC",
"I$	c #138CCE",
"J$	c #2582C3",
"K$	c #56A5D7",
"L$	c #56A6D9",
"M$	c #5FB5E7",
"N$	c #0E8AD2",
"O$	c #209EE2",
"P$	c #1794D9",
"Q$	c #61B9EB",
"R$	c #0786CF",
"S$	c #1B9FE3",
"T$	c #55B3E7",
"U$	c #0586CF",
"V$	c #1B9ADE",
"W$	c #61BFF0",
"X$	c #4FABE2",
"Y$	c #50A9E0",
"Z$	c #1B84C8",
"`$	c #3D9AD4",
" %	c #4297D0",
".%	c #57ADDE",
"+%	c #53B3E7",
"@%	c #4FA4D8",
"#%	c #4FA4D6",
"$%	c #328CCA",
"%%	c #338DCB",
"&%	c #1F8ED5",
"*%	c #1A9CE1",
"=%	c #189CE1",
"-%	c #55AEE3",
";%	c #3096D8",
">%	c #349CDD",
",%	c #49A2D9",
"'%	c #027AC2",
")%	c #0385CF",
"!%	c #63BDEE",
"~%	c #40A5DE",
"{%	c #3C92CC",
"]%	c #5BAFE0",
"^%	c #61B6E7",
"/%	c #60B9EA",
"(%	c #45A6E0",
"_%	c #1090D6",
":%	c #5CB0E1",
"<%	c #3FA6DE",
"[%	c #338BC8",
"}%	c #1A9DE2",
"|%	c #1A98DA",
"1%	c #2198DB",
"2%	c #5EB5E9",
"3%	c #60BAEC",
"4%	c #62C3F4",
"5%	c #69BCE9",
"6%	c #378CC8",
"7%	c #047AC0",
"8%	c #2C9AD9",
"9%	c #5CB2E2",
"0%	c #5CB2E5",
"a%	c #3AA7E5",
"b%	c #179FE2",
"c%	c #329CD9",
"d%	c #3B90CB",
"e%	c #62BAE8",
"f%	c #44ABE6",
"g%	c #3D98D2",
"h%	c #358CC9",
"i%	c #2E8CCD",
"j%	c #3EA6E4",
"k%	c #1EA3E7",
"l%	c #1999DB",
"m%	c #077BC0",
"n%	c #118ACD",
"o%	c #5BB8EB",
"p%	c #3998D6",
"q%	c #1B99DB",
"r%	c #3D92CD",
"s%	c #4DA1D5",
"t%	c #64B4E2",
"u%	c #69BBE7",
"v%	c #61B2E0",
"w%	c #2884C4",
"x%	c #328DCB",
"y%	c #51A9DD",
"z%	c #1E95DB",
"A%	c #2EA9E9",
"B%	c #67C4F3",
"C%	c #51B8EE",
"D%	c #53BDF2",
"E%	c #51B6EC",
"F%	c #52B9EF",
"G%	c #67BDEB",
"H%	c #5FB1DF",
"I%	c #4FAAE3",
"J%	c #55AEE1",
"K%	c #3894D0",
"L%	c #318DCB",
"M%	c #4096D0",
"N%	c #66BAE6",
"O%	c #53B5E9",
"P%	c #50A2D5",
"Q%	c #2082C4",
"R%	c #54ABE2",
"S%	c #0788D1",
"T%	c #1DA3E6",
"U%	c #3298D8",
"V%	c #3798D8",
"W%	c #0B90D6",
"X%	c #58B3E4",
"Y%	c #1CA4E6",
"Z%	c #1CA3E5",
"`%	c #4FA8E0",
" &	c #55A6D9",
".&	c #348BC8",
"+&	c #70C3ED",
"@&	c #1F87CB",
"#&	c #6ABEEC",
"$&	c #21AAEC",
"%&	c #3298D9",
"&&	c #54ACE2",
"*&	c #309FE0",
"=&	c #69BFEA",
"-&	c #0388D0",
";&	c #189DE2",
">&	c #0A80C4",
",&	c #489ED4",
"'&	c #55ADE2",
"  . + + + @ # $ + % & * = - $ + + + ; > , ' ) ! ~ { ] + + + ^ / ",
"( _ : + < [ } | 1 2 3 4 5 6 7 8 + + 9 0 a b c d e d f + + g h i ",
"j k l m n o % p > q r s t u v w x y z + A B C + + + D E F G H I ",
", J K L M N O P , , Q R S , T U V W X Y Z `  .+ + + + ..+., @.#.",
", , $.%.&.*., , , , =.-.;., >.,.'.).` !.~., {.].+ + + ..^.7 /.(.",
", , _.:.<.[.}., |.1.2.3.4., 5.6.7.8.9.0.1.a.b., c.+ d.e.f.>., , ",
", , g.h.i.j.k.l.m., , n.o.p.q.r.e + s.t.u.v.w., x.y.z.A.B.e , , ",
", , C.D.E.F.G.H.I.J.{.K.L.M.N., , J.J.O.P.Q.R.Q.S.  T.U.V.W.X., ",
"Y.Z.`. +.++++ @++ + #+O.$+%+&+*+=+-+;+>+=+=+,+'+)+J.+ !+U ~+{+]+",
"^+/+(+_+:+9 + + + <+[+}+|+1++ 2+3+4+5+6+P.7+8+9+0+a++ j.b+c+d+^+",
", v.e+f+g+h+i+i+i+j+k+l+m+n+o+p+q++ #+r+s+t+u+v+w+' N x++ y+z+A+",
"B+, C+D++ E+F+++G+H+, , >.I+J+K+x++ N L+M+N+, O+P+, Q+R+M S+T++ ",
"U+x.N V+W+W.X+Y+, , , , , , Z+`+ @.@+@@@#@$@%@&@*@r+%+M =@-@;@+ ",
"+ >@,@'@)@!@~@{@, , , ]@^@/@(@_@:@<@%++ [@}@|@1@+ + + + 2@3@4@N ",
"d 5@6@7@8@9@0@a@, , 8+b@c@d@e@, , .++ + + f@g@h@i@+ j@k@l@m@n@o@",
"p@q@r@I.+ s@t@=+, , u@v@w@, b@=+, .++ + + + x@y@z@A@B@C@6+D@E@F@",
"G@a.H@I@+ + J@K@L@e@M@N@O@, P@Q.Q@o@R@+ N A+d S@$ T@U@V@W@X@, Y@",
", >.Z@{.Q+e + `@ #.#+#r@@#, , , ##$#%#&#*#=#-#;#>#+ ,#).'#)#, Q.",
"!#~#C., , {#9 + ]#^#/#(#_#, , :#<#[#}#|#1#2#3#4#5#6#7#8#'#9#0#a#",
"b#c#d#, , e#+ + f#g#h#i#j#I.k#l#m#+ + + n#, o#p#q#`+r#s#'#t#+ u#",
"v#w#x#, , y#+ + h z#A#B#C#D#E#+ + + 9 /#F#|.G#H#s+I#J#K#L#M#N#O#",
"P#Q#R#S#S#T#U#V#W#B+X#Y#Z#`#1  $.$+$>., @$#$, $$%$&$*$=$-$;$>$,$",
", , '$)$####!$~${$]$^$N N /$($_$:$<$[$, }$_@|$1$, 2$3$4$5$6$7$8$",
", I.Q+9$0$0$0$a$b$q., , , , c$d$$ + e$f$:@g$h$i$, j$k$l$+ S+m$, ",
"m++ + + + + + n$o$p$, , , , q$r$s$t$u$v$w$x$y$I.y#$ z$l$+ A$B$C$",
"+ + 9 + + D$E$F$G$H$I$, J$K$L$M$j@N$O$P$Q$R$x.+ b+S$T$U$7#+ V$W$",
"X$Y$Z$N + `$ %, , .%+%@%#%$%%%&%+ + *%=%-%;%+ + +@>%,%'%>.J )%!%",
"~%{%]%^%/%(%_%H., :%<%[%, , }.+ + + }%|%1%2%3%6$4%5%6%, , , 7%{ ",
"r@8%9%0.0%a%b%c%d%e%f%g%h%, i%'#j%k%l%m%n%o%p%2@q%r%s%t%t%u%v%w%",
"x%y%z%=@A%B%C%5 D%E%t#F%G%H%>+t#I%J%K%L%M%u%N%O%, , , , , P%Q%L%",
"R%S%N#+ T%U%O.V%+ + + ).W%X%C N#Y%Z%`% & &.&8++&, , , , >.@&*##&",
"+ g@% T%$&%&&&+ + + + + *&=&-&;&+ + e$>&, , , $$,&, , K++ + T.'&"};
